<svg id="Layer_1" data-name="Layer 1" xmlns="http://www.w3.org/2000/svg" viewBox="0 0 45 45"><defs><style>.cls-1{fill:#fe0000;}</style></defs><title>logo-desktop</title><rect class="cls-1" x="2.2" y="2.2" width="10.61" height="10.61" transform="translate(-3.11 7.5) rotate(-45)"/><rect class="cls-1" x="2.2" y="17.2" width="10.61" height="10.61" transform="translate(-13.71 11.89) rotate(-45)"/><rect class="cls-1" x="2.2" y="32.2" width="10.61" height="10.61" transform="translate(-24.32 16.29) rotate(-45)"/><rect class="cls-1" x="17.2" y="2.2" width="10.61" height="10.61" transform="translate(1.29 18.11) rotate(-45)"/><rect class="cls-1" x="17.2" y="17.2" width="10.61" height="10.61" transform="translate(-9.32 22.5) rotate(-45)"/><rect class="cls-1" x="17.2" y="32.2" width="10.61" height="10.61" transform="translate(-19.93 26.89) rotate(-45)"/><rect class="cls-1" x="32.2" y="2.2" width="10.61" height="10.61" transform="translate(5.68 28.71) rotate(-45)"/><rect class="cls-1" x="32.2" y="17.2" width="10.61" height="10.61" transform="translate(-4.93 33.11) rotate(-45)"/><rect class="cls-1" x="32.2" y="32.2" width="10.61" height="10.61" transform="translate(-15.53 37.5) rotate(-45)"/></svg>